# xmcd
#
# Track frame offsets:
#	150
#	17462
#	29864
#	46369
#	61048
#	78450
#	93107
#	105333
#	119871
#	130298
#	150443
#	164961
#	179224
#	189898
#
# Disc length: 2719 seconds
#
# Revision: 1
# Processed by: cddbd v1.5.2PL0 Copyright (c) Steve Scherf et al.
# Submitted via: audiograbber 1.83.01
#
DISCID=ba0a9d0e
DTITLE=Frank Nelson - Treasured Memories
DYEAR=1900
DGENRE=
TTITLE0=Treasured Memories
TTITLE1=Cause I Love You
TTITLE2=They're Singing Our Song
TTITLE3=Satisfied Mind
TTITLE4=Teardrops In The Snow
TTITLE5=Rough Around The Edges
TTITLE6=Proud Mary
TTITLE7=I'll Be Leaving Alone
TTITLE8=Solid As A Rock
TTITLE9=Cowboys Are Common As Sin
TTITLE10=The Village Where I Went To School
TTITLE11=I Miss The Craic In Cricklewood
TTITLE12=Walk On By
TTITLE13=Girls, Women And Ladies
EXTD=
EXTT0=
EXTT1=
EXTT2=
EXTT3=
EXTT4=
EXTT5=
EXTT6=
EXTT7=
EXTT8=
EXTT9=
EXTT10=
EXTT11=
EXTT12=
EXTT13=
PLAYORDER=
